<?xml version="1.0" encoding="UTF-8"?><svg id="Layer_2" xmlns="http://www.w3.org/2000/svg" viewBox="0 0 294.24 289.49"><defs><style>.cls-1{fill:#fff9b0;}.cls-2{fill:#fff;}</style></defs><g id="Layer_5"><g><g><path class="cls-2" d="M225.63,270.25l-35.51,.17-23.01-82.33c1.59-3.72,3.91-8.14,7.3-12.7,6.29-8.47,13.49-13.64,18.45-16.61,4.77,16.36,9.54,32.71,14.31,49.07l41.05-133.05h46.02s-68.61,195.46-68.61,195.46Z"/><path class="cls-2" d="M68.61,270.25l35.51,.17,23.01-82.33c-1.59-3.72-3.91-8.14-7.3-12.7-6.29-8.47-13.49-13.64-18.45-16.61-4.77,16.36-9.54,32.71-14.31,49.07L46.02,74.8H0s68.61,195.46,68.61,195.46Z"/></g><path class="cls-1" d="M146.95,176.56c-.91-2.67-2.45-6.52-5.02-10.71-4.89-7.95-10.06-11.51-18.16-18.18-12.17-10.04-18.26-15.07-22.7-21.51-3.35-4.87-5.83-10.35-7.49-16.09-1.81-6.27-2.21-12.58-2.58-19.1s-.15-14,.26-20.77c0,0,55.69,0,55.69,0,0,0,56.32,0,56.32,0,.4,6.77,0,14-.38,20.77s-.76,12.83-2.58,19.1c-1.66,5.74-4.14,11.22-7.49,16.09-4.44,6.45-10.52,11.47-22.7,21.51-8.09,6.68-13.27,10.23-18.16,18.18-2.57,4.19-4.11,8.03-5.02,10.71Z"/><path class="cls-2" d="M170.05,169.27c7.51-9.85,17.7-15.7,26.38-24.13,7.35-7.15,12.94-17.39,16.38-27,7.2-20.08,6.77-42.28,3.78-63.14-1.48-10.34-3.79-20.66-6.93-30.61-.77-2.44-7.14-24.23-9.56-24.24-17.66-.03-35.33-.07-52.99-.1v-.05c-17.66,.03-35.33,.07-52.99,.1-2.42,0-8.79,21.8-9.56,24.24-3.14,9.95-5.45,20.27-6.93,30.61-2.98,20.86-3.42,43.06,3.78,63.14,3.45,9.6,9.03,19.85,16.38,27,8.68,8.43,18.87,14.28,26.38,24.13,10.11,13.27,10.56,26.51,10.74,42.43,.21,18.41,.27,36.82,.41,55.22-4.41,4.46-8.58,6.94-11.45,8.35-4.36,2.14-8.76,3.31-27.09,5.31-5.79,.63-10.61,1.09-14.02,1.39v7.52l64.33-.37v.05s64.34,.37,64.34,.37v-7.52c-3.41-.31-8.24-.76-14.02-1.39-18.33-2-22.73-3.17-27.08-5.31-2.86-1.41-7.04-3.88-11.45-8.35,.14-18.41,.2-36.82,.41-55.22,.18-15.91,.63-29.16,10.74-42.43Zm-15.3,107.12c1.9,2.75,3.95,4.67,5.5,5.91h-26.38c1.55-1.24,3.6-3.16,5.5-5.91,1.88-2.72,2.95-5.3,3.57-7.18v-75.86c-.4-4.25-1.36-9.44-3.54-15.03-5.99-15.38-17.36-23.93-22.75-27.45-5.14-3.1-15.57-10.35-23.25-23.87-13.16-23.15-9.7-55.24-5.76-80.5,2.32-14.86,6.95-28.46,10.49-39.31l96.66,.09c3.54,10.85,9.37,24.36,11.69,39.22,4.02,25.75,7.7,56.83-5.76,80.51-7.68,13.52-18.11,20.77-23.25,23.87-5.39,3.52-16.76,12.07-22.75,27.45-2.18,5.58-3.14,10.78-3.54,15.03v75.86c.62,1.89,1.69,4.47,3.57,7.18Z"/></g></g></svg>